<svg xmlns="http://www.w3.org/2000/svg" viewBox="0 0 500 400" width="500" height="400">
  <defs>
    <linearGradient id="body2" x1="0%" y1="0%" x2="100%" y2="100%">
      <stop offset="0%" style="stop-color:#0d0d0d"/>
      <stop offset="50%" style="stop-color:#1a1a1a"/>
      <stop offset="100%" style="stop-color:#050505"/>
    </linearGradient>
    <linearGradient id="neon2" x1="0%" y1="0%" x2="100%" y2="0%">
      <stop offset="0%" style="stop-color:#ff00aa;stop-opacity:0.8"/>
      <stop offset="50%" style="stop-color:#00ffff;stop-opacity:1"/>
      <stop offset="100%" style="stop-color:#00ff88;stop-opacity:0.8"/>
    </linearGradient>
    <filter id="glow2">
      <feGaussianBlur stdDeviation="5" result="blur"/>
      <feMerge><feMergeNode in="blur"/><feMergeNode in="SourceGraphic"/></feMerge>
    </filter>
    <filter id="hardglow">
      <feGaussianBlur stdDeviation="2" result="blur"/>
      <feMerge><feMergeNode in="blur"/><feMergeNode in="SourceGraphic"/></feMerge>
    </filter>
  </defs>
  
  <rect width="500" height="400" fill="#050505"/>
  
  <polygon points="100,80 400,80 420,100 420,260 400,280 100,280 80,260 80,100" fill="url(#body2)" stroke="#222" stroke-width="2"/>
  
  <rect x="120" y="100" width="120" height="70" rx="6" fill="#001515" stroke="#00ffff" stroke-width="2" filter="url(#hardglow)"/>
  <rect x="130" y="110" width="100" height="50" rx="3" fill="#000a0a"/>
  
  <text x="180" y="130" font-family="monospace" font-size="12" fill="#00ffff" text-anchor="middle" filter="url(#glow2)">PATRIOT</text>
  <text x="180" y="145" font-family="monospace" font-size="9" fill="#008888" text-anchor="middle">WM-181 SMART</text>
  <line x1="140" y1="152" x2="220" y2="152" stroke="#00ffff" stroke-width="1" opacity="0.5"/>
  <text x="180" y="162" font-family="monospace" font-size="7" fill="#006666" text-anchor="middle">7.2kW | 180A | IGBT</text>
  
  <rect x="260" y="100" width="140" height="70" rx="6" fill="#0a0a0a" stroke="#333" stroke-width="1"/>
  <circle cx="330" cy="135" r="25" fill="#000a0a" stroke="#00ffff" stroke-width="2"/>
  <circle cx="330" cy="135" r="18" fill="none" stroke="#00ffff" stroke-width="1" filter="url(#hardglow)"/>
  <circle cx="330" cy="135" r="10" fill="#00ffff" filter="url(#glow2)" opacity="0.9"/>
  <text x="330" y="139" font-family="monospace" font-size="9" fill="#000" text-anchor="middle" font-weight="bold">180</text>
  
  <rect x="120" y="180" width="280" height="80" rx="4" fill="#080808" stroke="#222" stroke-width="1"/>
  
  <rect x="130" y="190" width="60" height="25" rx="2" fill="#001a00" stroke="#00ff00" stroke-width="1"/>
  <text x="160" y="207" font-family="monospace" font-size="8" fill="#00ff00" text-anchor="middle">MMA</text>
  
  <rect x="200" y="190" width="60" height="25" rx="2" fill="#001a00" stroke="#00ff00" stroke-width="1"/>
  <text x="230" y="207" font-family="monospace" font-size="8" fill="#00ff00" text-anchor="middle">TIG</text>
  
  <rect x="270" y="190" width="60" height="25" rx="2" fill="#1a0a00" stroke="#ff8800" stroke-width="1"/>
  <text x="300" y="207" font-family="monospace" font-size="8" fill="#ff8800" text-anchor="middle">HOT</text>
  
  <rect x="340" y="190" width="50" height="25" rx="2" fill="#0a001a" stroke="#8800ff" stroke-width="1"/>
  <text x="365" y="207" font-family="monospace" font-size="8" fill="#8800ff" text-anchor="middle">VRD</text>
  
  <rect x="130" y="225" width="270" height="25" rx="2" fill="#000" stroke="#1a1a1a" stroke-width="1"/>
  <rect x="132" y="227" width="180" height="21" rx="1" fill="#001a1a"/>
  <rect x="132" y="227" width="120" height="21" rx="1" fill="#00ffff" opacity="0.3"/>
  <text x="265" y="242" font-family="monospace" font-size="8" fill="#00ffff">67%</text>
  
  <path d="M 420 140 C 450 140 460 160 460 180 L 460 320 C 460 340 440 340 430 340" fill="none" stroke="#1a1a1a" stroke-width="14" stroke-linecap="round"/>
  <path d="M 420 140 C 450 140 460 160 460 180 L 460 320 C 460 340 440 340 430 340" fill="none" stroke="#00ffff" stroke-width="2" filter="url(#glow2)" opacity="0.4"/>
  
  <circle cx="430" cy="340" r="10" fill="#111" stroke="#00ffff" stroke-width="2"/>
  <circle cx="430" cy="340" r="5" fill="#00ffff" filter="url(#glow2)"/>
  
  <line x1="100" y1="290" x2="400" y2="290" stroke="#00ffff" stroke-width="1" opacity="0.2"/>
  
  <rect x="140" y="300" width="220" height="40" rx="4" fill="#0a0a0a" stroke="#00ffff" stroke-width="1" filter="url(#hardglow)"/>
  <text x="250" y="318" font-family="monospace" font-size="9" fill="#00ffff" text-anchor="middle" filter="url(#glow2)">ARC FORGE 2077</text>
  <text x="250" y="332" font-family="monospace" font-size="7" fill="#008888" text-anchor="middle">RESEARCH PROTOTYPE</text>
  
  <text x="250" y="365" font-family="monospace" font-size="12" fill="url(#neon2)" text-anchor="middle" filter="url(#glow2)">СВАРОЧНЫЙ КОМПЛЕКС</text>
  <text x="250" y="385" font-family="monospace" font-size="8" fill="#005555" text-anchor="middle">PATRIOT × DORA INDUSTRIES | 2077</text>
</svg>
