<svg xmlns="http://www.w3.org/2000/svg" viewBox="0 0 500 450" width="500" height="450">
  <defs>
    <linearGradient id="body5" x1="0%" y1="0%" x2="100%" y2="100%">
      <stop offset="0%" style="stop-color:#1f1f1f"/>
      <stop offset="50%" style="stop-color:#151515"/>
      <stop offset="100%" style="stop-color:#0a0a0a"/>
    </linearGradient>
    <linearGradient id="fire5" x1="0%" y1="100%" x2="0%" y2="0%">
      <stop offset="0%" style="stop-color:#ff2200"/>
      <stop offset="50%" style="stop-color:#ff6600"/>
      <stop offset="100%" style="stop-color:#ffaa00"/>
    </linearGradient>
    <filter id="glow5">
      <feGaussianBlur stdDeviation="3" result="blur"/>
      <feMerge><feMergeNode in="blur"/><feMergeNode in="SourceGraphic"/></feMerge>
    </filter>
    <filter id="fireglow5">
      <feGaussianBlur stdDeviation="5" result="blur"/>
      <feMerge><feMergeNode in="blur"/><feMergeNode in="SourceGraphic"/></feMerge>
    </filter>
  </defs>
  
  <rect width="500" height="450" fill="#080808"/>
  
  <polygon points="140,80 380,80 400,100 400,320 380,340 140,340 120,320 120,100" fill="url(#body5)" stroke="#ff4400" stroke-width="2"/>
  
  <rect x="145" y="85" width="230" height="8" fill="#1a0a00"/>
  <rect x="145" y="85" width="180" height="8" fill="#ff4400" opacity="0.5" filter="url(#glow5)"/>
  
  <polygon points="140,80 380,80 395,95 125,95" fill="#1a1a1a" stroke="#ff4400" stroke-width="1"/>
  
  <path d="M 160,70 C 160,50 180,45 200,50 L 220,55 C 230,57 235,65 235,75 L 235,80" fill="none" stroke="#ff4400" stroke-width="6" stroke-linecap="round"/>
  <path d="M 270,70 C 270,50 290,45 310,50 L 330,55 C 340,57 345,65 345,75 L 345,80" fill="none" stroke="#ff4400" stroke-width="6" stroke-linecap="round"/>
  
  <rect x="135" y="100" width="130" height="230" rx="4" fill="#0f0f0f" stroke="#ff4400" stroke-width="1"/>
  
  <rect x="145" y="110" width="60" height="25" rx="3" fill="#1a0a00" stroke="#ff4400" stroke-width="2" filter="url(#glow5)"/>
  <text x="175" y="127" font-family="monospace" font-size="11" fill="#ff4400" text-anchor="middle" filter="url(#fireglow5)">PATRIOT</text>
  
  <rect x="145" y="140" width="60" height="15" rx="2" fill="#0a0500"/>
  <text x="175" y="152" font-family="monospace" font-size="7" fill="#cc6600" text-anchor="middle">WM 181 Smart</text>
  
  <circle cx="175" cy="190" r="28" fill="#0a0500" stroke="#ff4400" stroke-width="2"/>
  <circle cx="175" cy="190" r="22" fill="#111" stroke="#333" stroke-width="1"/>
  <circle cx="175" cy="190" r="8" fill="#ff4400" filter="url(#fireglow5)"/>
  
  <text x="150" y="170" font-family="monospace" font-size="6" fill="#ff4400">20</text>
  <text x="195" y="170" font-family="monospace" font-size="6" fill="#ff4400">90</text>
  <text x="200" y="215" font-family="monospace" font-size="6" fill="#ff4400">180</text>
  <text x="150" y="215" font-family="monospace" font-size="6" fill="#ff4400">50</text>
  <text x="175" y="235" font-family="monospace" font-size="8" fill="#ff4400" text-anchor="middle">A</text>
  
  <circle cx="155" cy="122" r="4" fill="#ff0000" filter="url(#glow5)"/>
  <circle cx="170" cy="122" r="4" fill="#ffaa00" filter="url(#glow5)"/>
  
  <g transform="translate(145, 250)">
    <circle cx="8" cy="8" r="5" fill="none" stroke="#ff4400" stroke-width="1" opacity="0.3"/>
    <circle cx="22" cy="8" r="5" fill="none" stroke="#ff4400" stroke-width="1" opacity="0.3"/>
    <circle cx="36" cy="8" r="5" fill="none" stroke="#ff4400" stroke-width="1" opacity="0.3"/>
    <circle cx="8" cy="22" r="5" fill="none" stroke="#ff4400" stroke-width="1" opacity="0.3"/>
    <circle cx="22" cy="22" r="5" fill="none" stroke="#ff4400" stroke-width="1" opacity="0.3"/>
    <circle cx="36" cy="22" r="5" fill="none" stroke="#ff4400" stroke-width="1" opacity="0.3"/>
    <circle cx="8" cy="36" r="5" fill="none" stroke="#ff4400" stroke-width="1" opacity="0.3"/>
    <circle cx="22" cy="36" r="5" fill="none" stroke="#ff4400" stroke-width="1" opacity="0.3"/>
    <circle cx="36" cy="36" r="5" fill="none" stroke="#ff4400" stroke-width="1" opacity="0.3"/>
    <circle cx="8" cy="50" r="5" fill="none" stroke="#ff4400" stroke-width="1" opacity="0.3"/>
    <circle cx="22" cy="50" r="5" fill="none" stroke="#ff4400" stroke-width="1" opacity="0.3"/>
    <circle cx="36" cy="50" r="5" fill="none" stroke="#ff4400" stroke-width="1" opacity="0.3"/>
  </g>
  
  <rect x="145" y="320" width="40" height="12" rx="2" fill="#1a0000" stroke="#ff0044" stroke-width="1"/>
  <circle cx="155" cy="326" r="3" fill="#ff0044" filter="url(#glow5)"/>
  <text x="165" y="329" font-family="monospace" font-size="5" fill="#ff0044">+</text>
  
  <rect x="195" y="320" width="40" height="12" rx="2" fill="#0a0a0a" stroke="#ff4400" stroke-width="1"/>
  <circle cx="205" cy="326" r="3" fill="#ff4400" filter="url(#glow5)"/>
  <text x="215" y="329" font-family="monospace" font-size="5" fill="#ff4400">-</text>
  
  <rect x="280" y="100" width="110" height="230" rx="4" fill="#0a0a0a" stroke="#333" stroke-width="1"/>
  
  <rect x="290" y="110" width="90" height="40" rx="3" fill="#0a0500" stroke="#ff4400" stroke-width="1"/>
  <text x="335" y="128" font-family="monospace" font-size="14" fill="#ff4400" text-anchor="middle" filter="url(#fireglow5)">PATRIOT</text>
  <text x="335" y="143" font-family="monospace" font-size="8" fill="#cc6600" text-anchor="middle">WM 181 Smart</text>
  
  <text x="295" y="170" font-family="monospace" font-size="7" fill="#884400">АППАРАТ СВАРОЧНЫЙ</text>
  <text x="295" y="182" font-family="monospace" font-size="7" fill="#884400">ИНВЕРТОРНЫЙ</text>
  
  <line x1="290" y1="190" x2="380" y2="190" stroke="#ff4400" stroke-width="0.5" opacity="0.3"/>
  
  <rect x="290" y="200" width="90" height="50" rx="2" fill="#0a0500" stroke="#333" stroke-width="1"/>
  <text x="335" y="215" font-family="monospace" font-size="6" fill="#ff4400" text-anchor="middle">+50°C</text>
  <text x="335" y="228" font-family="monospace" font-size="6" fill="#ff4400" text-anchor="middle">60%</text>
  <text x="335" y="241" font-family="monospace" font-size="6" fill="#ff4400" text-anchor="middle">IP21</text>
  
  <rect x="290" y="260" width="90" height="60" rx="2" fill="#1a0500" stroke="#ff4400" stroke-width="1" filter="url(#glow5)"/>
  <text x="335" y="280" font-family="monospace" font-size="9" fill="#ff4400" text-anchor="middle" filter="url(#fireglow5)">ARC FORGE</text>
  <text x="335" y="295" font-family="monospace" font-size="9" fill="#ff4400" text-anchor="middle" filter="url(#fireglow5)">2077</text>
  <text x="335" y="310" font-family="monospace" font-size="8" fill="#cc6600" text-anchor="middle">-2077-</text>
  
  <rect x="150" y="355" width="230" height="30" rx="4" fill="#0a0500" stroke="#ff4400" stroke-width="2" filter="url(#fireglow5)"/>
  <text x="265" y="375" font-family="monospace" font-size="12" fill="#ff4400" text-anchor="middle" filter="url(#fireglow5)">СВАРОЧНЫЙ КОМПЛЕКС</text>
  
  <text x="265" y="405" font-family="monospace" font-size="9" fill="#cc6600" text-anchor="middle">RESEARCH PROTOTYPE v2.077</text>
  <text x="265" y="425" font-family="monospace" font-size="7" fill="#663300" text-anchor="middle">PATRIOT × DORA INDUSTRIES</text>
  
  <circle cx="410" cy="280" r="2" fill="#ffff00" filter="url(#glow5)"/>
  <circle cx="420" cy="290" r="1.5" fill="#ffaa00" filter="url(#glow5)"/>
  <circle cx="415" cy="270" r="1" fill="#ffff00" filter="url(#glow5)"/>
</svg>
